<?xml version="1.0" encoding="UTF-8" standalone="no"?>
<!-- Created with Inkscape (http://www.inkscape.org/) -->

<svg
   xmlns:dc="http://purl.org/dc/elements/1.1/"
   xmlns:cc="http://creativecommons.org/ns#"
   xmlns:rdf="http://www.w3.org/1999/02/22-rdf-syntax-ns#"
   xmlns:svg="http://www.w3.org/2000/svg"
   xmlns="http://www.w3.org/2000/svg"
   xmlns:xlink="http://www.w3.org/1999/xlink"
   xmlns:sodipodi="http://sodipodi.sourceforge.net/DTD/sodipodi-0.dtd"
   xmlns:inkscape="http://www.inkscape.org/namespaces/inkscape"
   width="744.09448"
   height="1052.3622"
   id="svg2"
   version="1.1"
   inkscape:version="0.48.4 r9939"
   sodipodi:docname="Deckblatt.svg">
  <defs
     id="defs4" />
  <sodipodi:namedview
     id="base"
     pagecolor="#ffffff"
     bordercolor="#666666"
     borderopacity="1.0"
     inkscape:pageopacity="0.0"
     inkscape:pageshadow="2"
     inkscape:zoom="0.7"
     inkscape:cx="144.15588"
     inkscape:cy="460.33547"
     inkscape:document-units="mm"
     inkscape:current-layer="layer3"
     showgrid="false"
     inkscape:window-width="1680"
     inkscape:window-height="1000"
     inkscape:window-x="0"
     inkscape:window-y="0"
     inkscape:window-maximized="1"
     showguides="false"
     inkscape:guide-bbox="true"
     units="mm"
     inkscape:snap-grids="false"
     inkscape:snap-bbox="true"
     inkscape:snap-bbox-midpoints="true"
     inkscape:snap-global="true">
    <sodipodi:guide
       orientation="0,1"
       position="-35.433071,350.7874"
       id="guide3069" />
    <sodipodi:guide
       orientation="0,1"
       position="-35.433071,701.5748"
       id="guide3071" />
    <inkscape:grid
       units="mm"
       empspacing="10"
       visible="true"
       enabled="true"
       snapvisiblegridlinesonly="true"
       type="xygrid"
       id="grid3073" />
    <sodipodi:guide
       orientation="0,1"
       position="-35.433071,526.1811"
       id="guide3079" />
    <sodipodi:guide
       orientation="0,1"
       position="-35.433071,175.3937"
       id="guide3081" />
    <sodipodi:guide
       orientation="0,1"
       position="-35.433071,876.9685"
       id="guide3083" />
    <sodipodi:guide
       orientation="0,1"
       position="-35.433071,789.27165"
       id="guide3085" />
    <sodipodi:guide
       orientation="0,1"
       position="-35.433071,613.87795"
       id="guide3087" />
    <sodipodi:guide
       orientation="0,1"
       position="-35.433071,87.69685"
       id="guide3089" />
  </sodipodi:namedview>
  <metadata
     id="metadata7">
    <rdf:RDF>
      <cc:Work
         rdf:about="">
        <dc:format>image/svg+xml</dc:format>
        <dc:type
           rdf:resource="http://purl.org/dc/dcmitype/StillImage" />
        <dc:title />
      </cc:Work>
    </rdf:RDF>
  </metadata>
  <g
     inkscape:label="Grafik"
     inkscape:groupmode="layer"
     id="layer1"
     style="display:none"
     transform="translate(0,-2.5390623e-6)"
     sodipodi:insensitive="true">
    <image
       y="165.12791"
       x="115.18788"
       id="image3031"
       xlink:href="file:///home/wolfgang/Noten/Zelenka/ZWV%2019%20Missa%20Dei%20Patris/Deckblatt/MissaDeiPatris.png"
       height="91.92218"
       width="487.69821" />
  </g>
  <g
     inkscape:groupmode="layer"
     id="layer2"
     inkscape:label="Trace"
     style="display:none"
     transform="translate(0,-2.5390623e-6)"
     sodipodi:insensitive="true">
    <path
       style="color:#000000;fill:#000000;stroke:none;stroke-width:0.125;marker:none;visibility:visible;display:inline;overflow:visible;enable-background:accumulate"
       d="m 185.52085,213.8093 c -1.81252,0.74776 -3.33963,1.17848 -5.52427,2.02031 -0.19341,0.0745 -0.60132,-0.4245 -0.25254,-0.56821 1.07318,-0.44219 2.31648,-0.87985 3.4724,-1.32583 1.24332,-0.4797 2.51668,-0.88986 3.72493,-1.45209 1.43445,-0.66749 3.15074,-1.43825 4.54634,-2.18355 0.92166,-0.4922 1.52144,-0.97346 2.39846,-1.54139 1.16973,-0.75748 2.26897,-1.63259 3.283,-2.58851 0.55319,-0.52149 1.1102,-1.06127 1.51523,-1.70464 0.37689,-0.59868 0.63405,-1.27482 0.82075,-1.95717 0.16259,-0.59424 0.29473,-1.21627 0.25253,-1.8309 -0.0479,-0.69792 -0.23812,-1.40351 -0.56821,-2.0203 -0.27465,-0.5132 -0.66314,-0.98699 -1.13642,-1.32583 -0.55289,-0.39583 -1.23039,-0.60946 -1.89403,-0.75761 -1.04931,-0.23424 -2.14902,-0.28555 -3.21986,-0.18941 -0.71173,0.0639 -1.41805,0.19932 -2.10576,0.39347 -0.80921,0.22846 -1.37324,0.54665 -1.92402,0.94319 -0.64109,0.46156 -1.52974,1.46711 -2.01331,2.09176 -1.18156,1.52629 -1.69998,2.42846 -2.73261,3.83205 -0.96554,1.3124 -1.95821,2.66454 -2.95267,3.95516 -1.66928,2.16642 -3.28949,4.07332 -4.94999,6.24648 -1.46755,1.92064 -2.97526,4.03267 -4.34544,6.02394 -1.89919,2.76008 -3.58464,5.40492 -5.52969,8.13287 -1.17777,1.65184 -2.31867,3.46966 -3.77341,4.88368 -1.72093,1.67276 -3.71123,3.04731 -5.71526,4.36777 -1.58528,1.04455 -3.27353,2.14516 -4.99529,2.945 -1.87101,0.86917 -3.86695,1.46944 -5.87151,1.95717 -2.11123,0.51368 -4.27988,0.77306 -6.43973,1.01015 -1.99128,0.21859 -3.81912,0.29024 -5.81921,0.17792 -2.04851,-0.11503 -3.75078,-0.24498 -5.68144,-0.93936 -1.88888,-0.67936 -4.10526,-1.66394 -5.6866,-2.90036 -1.32516,-1.03611 -2.44345,-2.20751 -3.24919,-3.68412 -1.01708,-1.8639 -1.68068,-4.04829 -1.85005,-6.16487 -0.20883,-2.60969 -0.009,-5.29025 0.63135,-7.82868 0.74256,-2.94199 2.16909,-5.69207 3.6618,-8.33376 1.07717,-1.90629 2.40801,-3.66653 3.78807,-5.36643 2.59038,-3.19072 5.32798,-6.29464 8.3969,-9.02824 2.57419,-2.29292 5.2933,-4.49938 8.33376,-6.12405 3.15888,-1.68795 6.08656,-3.22242 9.65509,-3.52787 2.62002,-0.22426 5.329,0.16255 7.36377,1.05414 0.82202,0.36019 2.14769,1.19801 2.74106,1.87135 0.53754,0.60999 1.01132,1.29381 1.23815,2.07457 0.26028,0.8959 0.26504,1.88811 0.27824,2.82096 0.0129,0.90938 0.12984,1.82251 0.0453,2.72805 -0.1511,1.61853 -0.57014,3.2043 -0.98214,4.77679 -0.39599,1.51142 -0.78399,2.59677 -1.09375,3.50447 -0.08,0.23439 -0.59842,0.0164 -0.53571,-0.22322 0.34211,-1.30726 0.52318,-2.20304 0.87053,-3.72768 0.33529,-1.47173 0.61409,-3.11145 0.64732,-4.62053 0.0211,-0.95956 0.0187,-1.77821 -0.24554,-2.7009 -0.24384,-0.85127 -0.57496,-1.70977 -1.11607,-2.41071 -0.6718,-0.87024 -1.58391,-1.56377 -2.54464,-2.09822 -1.01574,-0.56506 -2.16396,-0.88737 -3.30357,-1.11607 -1.03846,-0.2084 -2.29064,-0.37049 -3.34821,-0.3125 -1.16287,0.0638 -2.70111,0.40314 -3.81697,0.73661 -1.42472,0.42578 -2.50907,1.03392 -3.86161,1.65179 -1.59811,0.73005 -2.94103,1.43938 -4.41964,2.38839 -1.50411,0.96538 -2.79335,2.23141 -4.15179,3.39286 -1.57801,1.34917 -3.16849,2.69005 -4.64285,4.15178 -1.74301,1.72808 -3.47826,3.48619 -4.95536,5.44643 -1.43152,1.89975 -2.91295,4.09883 -4.01786,6.20536 -0.91309,1.74081 -1.62152,3.36988 -2.20982,5.24553 -0.3677,1.17234 -0.55499,2.40844 -0.78125,3.61608 -0.21986,1.17349 -0.41856,2.35551 -0.44643,3.5491 -0.0298,1.27508 0.1899,2.76849 0.44643,4.01785 0.20844,1.01516 0.44974,1.83104 0.89286,2.76787 0.45715,0.96649 1.12369,1.83161 1.83036,2.63392 0.67552,0.76695 1.4386,1.46877 2.27678,2.05358 0.7861,0.54847 1.65999,0.97028 2.54464,1.33928 0.82095,0.34243 1.86426,0.70639 2.72322,0.9375 1.38407,0.3724 2.59425,0.63725 4.01786,0.80357 1.15297,0.1347 2.32213,0.0877 3.48214,0.0446 1.53751,-0.0572 3.27087,-0.13433 4.7991,-0.3125 2.04644,-0.23858 3.91514,-0.48752 5.91518,-0.98215 1.25645,-0.31073 2.4773,-0.7705 3.66072,-1.29464 1.40625,-0.62283 2.75763,-1.3734 4.0625,-2.1875 1.04057,-0.6492 2.19601,-1.37469 3.16964,-2.12054 1.67896,-1.28617 3.28858,-2.49445 4.73214,-4.04017 1.24566,-1.33381 2.14082,-2.9569 3.16965,-4.46429 1.22386,-1.79314 2.44416,-3.53672 3.66072,-5.33482 1.41344,-2.08908 2.98859,-4.37131 4.50892,-6.38393 1.13471,-1.50213 2.46083,-3.14761 3.66071,-4.59822 1.2994,-1.57093 2.37879,-2.8663 3.61607,-4.48661 0.93446,-1.22374 1.68823,-2.45681 2.58929,-3.70535 0.8273,-1.14634 1.67886,-2.27529 2.54464,-3.39286 0.40848,-0.52728 0.74393,-1.12802 1.25,-1.5625 0.76885,-0.66007 1.68726,-1.15639 2.63393,-1.51785 0.88067,-0.33626 1.82932,-0.49213 2.76786,-0.58036 0.77056,-0.0724 1.56092,-0.099 2.32143,0.0446 0.71712,0.13541 1.41347,0.40855 2.0536,0.75902 0.60565,0.33159 1.22426,0.7078 1.65179,1.25 0.32183,0.40815 0.47698,0.93032 0.625,1.42857 0.18044,0.60738 0.30041,1.24149 0.3125,1.875 0.0135,0.70495 -0.0847,1.41734 -0.26786,2.09822 -0.15936,0.5925 -0.41114,1.16299 -0.71429,1.69643 -0.34704,0.61068 -0.78271,1.172 -1.25,1.69642 -0.59539,0.66818 -1.27594,1.2584 -1.96428,1.83036 -0.98204,0.816 -1.99955,1.597 -3.08036,2.27679 -1.23966,0.77969 -2.57114,1.40452 -3.88393,2.05357 -1.22406,0.60518 -2.45793,1.19421 -3.72022,1.71497 z"
       id="path3036"
       inkscape:connector-curvature="0"
       transform="translate(0,2.5390623e-6)"
       sodipodi:nodetypes="ssssssssssssssssssssssssssssssssssssssssssssssssssssssssssssssssssssssssssssssssssssssssssssssssssss" />
    <path
       style="color:#000000;fill:#000000;stroke:none;stroke-width:0.125;marker:none;visibility:visible;display:inline;overflow:visible;enable-background:accumulate"
       d="m 218.63489,174.72903 c 0.0258,-0.11283 0.0105,-0.23198 0,-0.34724 -0.0634,-0.69262 -0.23187,-1.42726 -0.5797,-2.02955 -0.42181,-0.73039 -1.13975,-1.312 -1.85864,-1.75311 -0.46637,-0.28616 -0.8353,-0.50629 -1.3813,-0.54206 -0.80487,-0.0527 -1.62482,0.25075 -2.33598,0.63135 -0.78895,0.42224 -1.2803,1.06477 -1.88637,1.72312 -0.77969,0.84694 -1.56617,1.85236 -2.1858,2.82256 -0.75532,1.18265 -1.30543,2.48584 -2.02031,3.69337 -0.68701,1.16044 -1.42347,2.29165 -2.17814,3.40927 -0.73038,1.08166 -1.45713,2.23087 -2.20588,3.2999 -0.79869,1.14034 -1.7269,2.13024 -2.43451,3.32923 -0.47835,0.81053 -0.85998,1.67474 -1.26269,2.52538 -0.37487,0.79183 -0.74073,1.5886 -1.07329,2.39911 -0.66104,1.61108 -1.15702,3.28718 -1.8309,4.89293 -0.60661,1.44546 -1.19879,2.80546 -1.83249,4.23926 -0.72836,1.64798 -1.55544,3.34316 -2.23969,5.00994 -0.51276,1.24904 -1.08431,2.47692 -1.51522,3.75651 -0.26802,0.7959 -0.46946,1.61345 -0.66292,2.43068 -0.38078,1.6085 -0.74375,3.25006 -1.11251,4.86136 -0.35869,1.56731 -0.65955,3.11625 -1.06563,4.67195 -0.40418,1.54843 -0.69994,3.13081 -1.23112,4.64039 -0.40498,1.15093 -0.93757,2.25506 -1.48366,3.34613 -0.62623,1.2512 -1.27704,2.49677 -2.05188,3.6618 -1.01296,1.52305 -2.01869,2.80164 -3.15448,4.23543 -0.98061,1.23791 -2.11613,2.62523 -3.19054,3.78266 -1.33208,1.43502 -2.79512,2.74823 -4.29314,4.00904 -0.70685,0.59491 -1.43692,1.16676 -2.20971,1.67307 -1.06008,0.69453 -2.16726,1.32412 -3.31457,1.86247 -0.82617,0.38766 -1.66367,0.79175 -2.55694,0.97858 -0.6599,0.13802 -1.3754,0.29118 -2.02031,0.0947 -0.38854,-0.11838 -0.71753,-0.41488 -0.97859,-0.72604 -0.25709,-0.30643 -0.46048,-0.68062 -0.53664,-1.07329 -0.12463,-0.64253 0.0386,-1.31362 0.15784,-1.95717 0.13592,-0.73334 0.35629,-1.45331 0.63134,-2.14657 0.60914,-1.53533 1.40815,-2.99317 2.24128,-4.41942 0.65063,-1.11382 1.37078,-2.18929 2.14657,-3.21986 1.2438,-1.65228 2.64783,-3.17812 4.00905,-4.73509 1.05429,-1.20591 2.10407,-2.41786 3.21986,-3.5671 1.44119,-1.4844 2.93042,-2.92517 4.48255,-4.29315 1.17862,-1.03878 2.43513,-1.98576 3.6618,-2.96733 1.6963,-1.35735 3.37752,-2.73492 5.1139,-4.04061 1.70599,-1.28284 3.47894,-2.47419 5.2086,-3.72493 2.23928,-1.61925 4.45189,-3.27519 6.69226,-4.89293 1.27829,-0.92304 2.58596,-1.80551 3.85121,-2.74635 1.70924,-1.27099 3.36249,-2.61562 5.05076,-3.91434 2.13017,-1.63865 4.28636,-3.24345 6.40815,-4.89293 1.98116,-1.54015 3.94837,-3.09836 5.90308,-4.67195 1.57844,-1.27068 3.22633,-2.46413 4.70353,-3.85121 1.93767,-1.81946 3.68982,-3.83039 5.42957,-5.83995 1.27352,-1.47103 2.56083,-2.94142 3.6618,-4.54568 0.65359,-0.95237 1.24513,-1.9534 1.7362,-2.99889 0.49113,-1.04562 0.88915,-2.1387 1.19955,-3.25143 0.16413,-0.58838 0.2986,-1.19043 0.34724,-1.79934 0.0537,-0.67162 0.19935,-1.39975 -0.0631,-2.0203 -0.17682,-0.41808 -0.54991,-0.75869 -0.94702,-0.97859 -0.44233,-0.24494 -0.9786,-0.29172 -1.48366,-0.31567 -0.55018,-0.0261 -1.12308,0.003 -1.6415,0.18941 -0.60161,0.21593 -1.32561,0.66189 -1.85547,1.0194 -0.68242,0.46045 -1.15137,0.90516 -1.77476,1.44284 -0.67069,0.57848 -1.24692,1.25971 -1.83091,1.92561 -0.65121,0.74255 -1.26104,1.52099 -1.86246,2.30441 -1.02274,1.33224 -1.97639,2.71611 -2.96733,4.07217 -1.00829,1.3798 -2.08767,2.70996 -3.03045,4.13532 -1.21556,1.83777 -2.25759,3.78464 -3.3777,5.6821 -0.71926,1.21841 -1.44851,2.43115 -2.14661,3.66181 -0.85274,1.50325 -1.65575,3.0342 -2.49381,4.54568 -0.67847,1.22366 -1.3516,2.45049 -2.05187,3.66181 -0.95647,1.65448 -2.01539,3.24966 -2.93576,4.92449 -0.60738,1.10526 -1.13278,2.25365 -1.70463,3.3777 -0.62736,1.23316 -1.29582,2.44582 -1.89404,3.69337 -0.42361,0.8834 -0.82153,1.77937 -1.19955,2.68321 -0.43579,1.04197 -0.81966,2.10491 -1.23113,3.15673 -0.32533,0.83161 -0.71784,1.63975 -0.97858,2.49382 -0.22661,0.74227 -0.305,1.4524 -0.32651,2.2282 -0.0251,0.90611 0.0812,1.83989 0.26337,2.72786 0.14152,0.69001 0.31022,1.37499 0.50508,2.05187 0.0767,0.26649 0.0646,0.59426 0.2611,0.78991 0.23845,0.23739 0.65017,0.44413 0.95982,0.3125 0.26644,-0.11326 0.34487,-0.49381 0.37946,-0.78125 0.08,-0.66505 -0.30767,-1.30463 -0.4241,-1.96428 -0.14229,-0.8062 -0.29797,-1.61521 -0.33482,-2.43304 -0.0359,-0.79619 0.003,-1.59883 0.1116,-2.38839 0.13532,-0.98342 0.37551,-1.95368 0.66965,-2.90179 0.43355,-1.3975 1.04039,-2.73584 1.60714,-4.08482 0.61567,-1.46541 1.25678,-2.92106 1.94718,-4.35278 0.85447,-1.77195 1.78748,-3.50523 2.71479,-5.24017 0.99678,-1.86491 2.01176,-3.7205 3.06202,-5.55583 0.97248,-1.69941 2.00828,-3.36186 2.99889,-5.05077 0.77522,-1.32169 1.52457,-2.6585 2.30441,-3.97747 1.15081,-1.94639 2.1009,-3.84865 3.30308,-5.76374 0.96205,-1.53255 2.12498,-3.11184 3.16821,-4.59033 1.02162,-1.44787 1.89086,-2.69388 2.97432,-4.09608 0.83401,-1.07935 1.82947,-2.36676 2.77092,-3.35379 0.63335,-0.66401 1.34866,-1.24966 2.08344,-1.79934 0.5913,-0.44234 1.19224,-0.88956 1.86247,-1.19955 0.32932,-0.15231 0.68041,-0.28241 1.04172,-0.31567 0.47442,-0.0437 0.96462,0.0195 1.42053,0.15783 0.30625,0.0929 0.63128,0.21051 0.85232,0.44194 0.20811,0.2179 0.3083,0.5278 0.3788,0.82075 0.12321,0.51193 0.12147,1.05507 0.0631,1.57837 -0.099,0.88785 -0.37331,1.75489 -0.69448,2.58851 -0.34852,0.90462 -0.84845,1.74477 -1.32583,2.58852 -0.50036,0.88437 -1.0166,1.76363 -1.60993,2.58851 -0.7812,1.08607 -1.68243,2.08116 -2.55695,3.0936 -1.13959,1.31932 -2.29972,2.62218 -3.50396,3.88277 -0.93028,0.97381 -1.87291,1.93866 -2.87262,2.84105 -1.48716,1.34239 -3.07456,2.56991 -4.64039,3.81964 -1.42458,1.137 -2.89054,2.22127 -4.32472,3.34613 -1.70296,1.33567 -3.36297,2.72612 -5.08233,4.04061 -2.23037,1.70517 -4.54012,3.30422 -6.78696,4.98763 -1.34573,1.00827 -2.66823,2.04722 -4.00904,3.06203 -1.25853,0.95254 -2.49587,1.93473 -3.78808,2.84105 -1.16362,0.81613 -2.39999,1.52479 -3.56706,2.33598 -1.22351,0.85042 -2.4169,1.74412 -3.59867,2.65165 -0.90843,0.69762 -1.78796,1.43211 -2.68321,2.14657 -1.08279,0.86412 -2.15966,1.73577 -3.25143,2.58852 -0.80443,0.62831 -1.6441,1.21195 -2.43068,1.86247 -1.30368,1.07817 -2.55129,2.2234 -3.78807,3.37769 -0.92478,0.8631 -1.84774,1.73058 -2.71479,2.65165 -0.8488,0.90168 -1.60259,1.88875 -2.43068,2.80949 -0.88614,0.98529 -1.84068,1.9082 -2.71478,2.90419 -0.76428,0.87085 -1.51435,1.75641 -2.20971,2.68322 -0.67259,0.89647 -1.27168,1.84588 -1.89404,2.77792 -0.54456,0.81552 -0.97945,1.40303 -1.45368,2.26135 -0.54875,0.9932 -1.13879,2.24771 -1.57677,3.29449 -0.28665,0.68508 -0.59845,1.36572 -0.78919,2.08344 -0.17239,0.64869 -0.35738,1.31882 -0.31567,1.98873 0.0259,0.41546 0.11064,0.85707 0.34724,1.19956 0.23923,0.3463 0.63317,0.57041 1.01015,0.75761 0.34306,0.17035 0.72414,0.27372 1.10486,0.31568 0.53434,0.0589 1.07989,-0.005 1.60993,-0.0947 0.72254,-0.1222 1.42532,-0.35213 2.11501,-0.59978 0.78935,-0.28343 1.56258,-0.61887 2.30441,-1.01016 1.02009,-0.53807 1.99574,-1.16271 2.93575,-1.8309 1.13449,-0.80643 2.20921,-1.69748 3.25143,-2.62008 1.15336,-1.02099 2.24676,-2.1097 3.31456,-3.21986 1.3533,-1.40698 2.67625,-2.84692 3.91434,-4.35628 0.8582,-1.04624 1.69634,-2.11483 2.43068,-3.25143 0.61342,-0.94944 1.11504,-1.96704 1.6415,-2.96733 0.62462,-1.18681 1.27195,-2.36556 1.79934,-3.59866 0.51437,-1.20266 0.91856,-2.45034 1.32582,-3.69337 0.43744,-1.33513 0.65374,-2.61167 0.99867,-3.97365 0.50159,-1.98055 0.78231,-3.91242 1.21804,-5.9085 0.26459,-1.21208 0.72661,-2.59327 1.06629,-3.78648 0.3444,-1.20979 0.77533,-2.39472 1.23112,-3.5671 0.6899,-1.77456 1.53328,-3.6962 2.29516,-5.44106 0.83711,-1.91714 1.7243,-3.60278 2.50306,-5.54435 0.59604,-1.48602 1.03676,-3.03161 1.6415,-4.51412 0.42332,-1.03775 0.83346,-2.0886 1.38896,-3.06202 0.74514,-1.30573 1.72123,-2.46539 2.58852,-3.69338 0.82703,-1.17099 1.69004,-2.31688 2.49381,-3.50396 0.70859,-1.04651 1.10432,-1.79638 1.76169,-2.8758 0.66936,-1.0991 1.21157,-2.31402 1.88097,-3.41309 0.56631,-0.92982 1.41915,-2.14443 2.10258,-2.99189 0.37366,-0.46334 0.8238,-0.8606 1.2627,-1.26269 0.31392,-0.28759 0.60819,-0.61085 0.97858,-0.82075 0.25188,-0.14274 0.53337,-0.24907 0.82075,-0.2841 0.34611,-0.0422 0.71554,-0.0285 1.04172,0.0947 0.50009,0.18891 1.0969,0.61274 1.49515,0.96934 0.38284,0.34279 0.55801,0.68505 0.84083,1.1141 0.324,0.49151 0.45488,1.08741 0.72604,1.60993 0.12385,0.23867 0.14173,0.70576 0.41038,0.69448 0.33855,-0.0142 0.36638,-0.58513 0.44194,-0.91545 z"
       id="path3806"
       inkscape:connector-curvature="0"
       transform="translate(0,2.5390623e-6)"
       sodipodi:nodetypes="ssssssssssssssssssssssssssssssssssssssssssssssssssssssssssssssssssssssssssssssssssssssssssssssssssssssssssssssssssssssssssssssssssssssssssssssssssssssssssssssssssss" />
  </g>
  <g
     inkscape:groupmode="layer"
     id="layer3"
     inkscape:label="Deckblatt"
     transform="translate(0,-2.5390623e-6)"
     style="display:inline">
    <g
       id="g3055"
       transform="translate(93.781433,248.90889)">
      <text
         sodipodi:linespacing="125%"
         id="text3047"
         y="434.14883"
         x="279.31418"
         style="font-size:16px;font-style:normal;font-variant:normal;font-weight:normal;font-stretch:normal;text-align:center;line-height:125%;letter-spacing:2.13999987px;word-spacing:0px;text-anchor:middle;fill:#000000;fill-opacity:1;stroke:none;font-family:EB Garamond 12 All SC;-inkscape-font-specification:EB Garamond 12 All SC"
         xml:space="preserve"><tspan
           y="434.14883"
           x="280.38419"
           id="tspan3049"
           sodipodi:role="line">jan dismas</tspan></text>
      <text
         sodipodi:linespacing="125%"
         id="text3051"
         y="452.66589"
         x="277.94019"
         style="font-size:12px;font-style:normal;font-variant:normal;font-weight:normal;font-stretch:normal;text-align:center;line-height:125%;letter-spacing:5.19000053px;word-spacing:0px;text-anchor:middle;fill:#d40000;fill-opacity:1;stroke:none;font-family:EB Garamond;-inkscape-font-specification:EB Garamond"
         xml:space="preserve"><tspan
           style="font-size:20px;letter-spacing:5.19000053px;fill:#d40000"
           y="452.66589"
           x="280.53519"
           id="tspan3053"
           sodipodi:role="line">ZELENKA</tspan></text>
    </g>
    <text
       xml:space="preserve"
       style="font-size:12px;font-style:normal;font-variant:normal;font-weight:normal;font-stretch:normal;text-align:center;line-height:110.00000238%;letter-spacing:0px;word-spacing:0px;text-anchor:middle;fill:#000000;fill-opacity:1;stroke:none;font-family:EB Garamond;-inkscape-font-specification:EB Garamond"
       x="372.3208"
       y="412.09424"
       id="text3061"
       sodipodi:linespacing="110%"><tspan
         sodipodi:role="line"
         id="tspan3063"
         x="372.3208"
         y="412.09424"
         style="font-size:14px;font-style:normal;line-height:110.00000238%;-inkscape-font-specification:EB Garamond">Missa: Ultimarū Prima</tspan><tspan
         sodipodi:role="line"
         x="373.77002"
         y="427.49423"
         id="tspan3065"
         style="font-size:14px;font-style:normal;line-height:110.00000238%;-inkscape-font-specification:EB Garamond">dicta: </tspan><tspan
         sodipodi:role="line"
         x="372.3208"
         y="442.89423"
         id="tspan3067"
         style="font-size:14px;font-style:normal;line-height:110.00000238%;-inkscape-font-specification:EB Garamond">Missa Dei Patris.</tspan><tspan
         sodipodi:role="line"
         x="372.3208"
         y="458.29425"
         style="font-size:14px;font-style:normal;line-height:110.00000238%;-inkscape-font-specification:EB Garamond"
         id="tspan3075" /><tspan
         sodipodi:role="line"
         x="372.3208"
         y="473.69424"
         style="font-size:14px;font-style:normal;line-height:110.00000238%;-inkscape-font-specification:EB Garamond"
         id="tspan3077">ZWV Z 19</tspan></text>
    <text
       xml:space="preserve"
       style="font-size:14px;font-style:normal;font-variant:normal;font-weight:normal;font-stretch:normal;text-align:center;line-height:125%;letter-spacing:1.84000015px;word-spacing:0px;text-anchor:middle;fill:#000000;fill-opacity:1;stroke:none;font-family:EB Garamond 12 All SC;-inkscape-font-specification:EB Garamond 12 All SC"
       x="372.06738"
       y="967.76636"
       id="text3099"
       sodipodi:linespacing="125%"><tspan
         sodipodi:role="line"
         x="372.9874"
         y="967.76636"
         id="tspan3023">full score</tspan></text>
    <text
       sodipodi:linespacing="110%"
       id="text3021"
       y="876.96851"
       x="371.86884"
       style="font-size:12px;font-style:normal;font-variant:normal;font-weight:normal;font-stretch:normal;text-align:center;line-height:110.00000238%;letter-spacing:0px;word-spacing:0px;text-anchor:middle;fill:#000000;fill-opacity:1;stroke:none;font-family:EB Garamond;-inkscape-font-specification:EB Garamond"
       xml:space="preserve"><tspan
         id="tspan3032"
         style="font-size:14px;font-style:normal;line-height:110.00000238%;-inkscape-font-specification:EB Garamond"
         y="876.96851"
         x="371.86884"
         sodipodi:role="line">2 Ob / 2 Vl / Va / SATB (soli) / SATB (coro) / BOrg</tspan></text>
    <g
       style="font-size:72px;font-style:normal;font-variant:normal;font-weight:normal;font-stretch:normal;text-align:center;line-height:125%;letter-spacing:0px;word-spacing:0px;text-anchor:middle;fill:none;stroke:#808080;stroke-width:0.625;stroke-miterlimit:4;stroke-dasharray:none;font-family:EB Garamond;-inkscape-font-specification:EB Garamond"
       id="text3819"
       transform="translate(21.891603,71.477105)">
      <path
         d="m 119.83214,203.63743 -1.224,-23.76 c -0.216,-4.104 0.576,-5.544 2.808,-6.48 2.87999,-1.224 3.456,-1.44 3.456,-2.16 0,-0.72 -0.288,-1.224 -1.152,-1.224 -2.304,0 -7.27201,0.72 -9.144,0.72 -1.872,0 -2.88,0 -3.672,1.656 l -11.304003,23.472 c -1.367999,2.736 -1.656001,1.584 -2.232,0.072 l -8.424,-20.664 c -1.367999,-3.24 -2.592002,-4.536 -4.536,-4.536 -3.311997,0 -5.400003,-0.36 -7.992,-0.36 -0.863999,0 -2.448,-0.072 -2.448,1.008 0,1.152 2.592001,2.232 3.888,3.456 1.799998,1.656 2.951999,3.02401 2.304,8.136 l -2.448,19.152 c -0.504,3.6 -1.728003,6.48 -4.176,7.56 -1.655999,0.72 -3.96,1.08 -3.96,2.16 0,0.72 1.584001,1.152 2.376,1.224 0.503999,0 3.240003,-0.432 6.624,-0.432 3.455996,0 6.624,0.432 7.128,0.432 0.791999,-0.072 2.304,-0.504 2.304,-1.224 0,-1.08 -2.376002,-1.44 -3.96,-2.16 -1.871998,-0.864 -2.376,-4.392 -2.232,-6.336 l 1.224,-20.088 c 0.072,-1.8 0.720001,-2.808 1.8,-0.072 l 8.856,22.68 c 1.511998,3.888 2.088,4.464 2.808,4.464 0.647999,0 3.672003,-6.192 3.960003,-6.84 l 9.72,-22.32 c 0.504,-1.296 1.8,-1.584 1.872,-0.216 l 0.936,22.68 c 0.144,2.664 -0.93601,4.968 -3.384,6.048 -1.584,0.72 -3.96,1.08 -3.96,2.16 0,0.72 1.584,1.152 2.376,1.224 0.504,0 4.752,-0.432 8.136,-0.432 3.45599,0 8.208,0.432 8.712,0.432 0.792,-0.072 2.304,-0.504 2.304,-1.224 0,-1.08 -2.376,-1.44 -3.96,-2.16 -2.448,-1.08 -3.24,-3.384 -3.384,-6.048"
         style="fill:none;stroke:#808080;stroke-width:0.625;stroke-miterlimit:4;stroke-dasharray:none"
         id="path3824"
         inkscape:connector-curvature="0" />
      <path
         d="m 147.30014,170.37343 c -2.448,0 -5.40001,0.36 -7.92,0.36 -2.592,0 -5.18401,-0.36 -7.992,-0.36 -1.08,0 -2.52,0.432 -2.52,1.296 0,0.648 0.504,1.008 1.152,1.224 4.10399,1.152 5.904,1.224 5.904,5.328 l 0,26.28 c 0,2.664 -0.93601,4.104 -3.384,5.184 -1.584,0.72 -3.96,1.08 -3.96,2.16 0,0.72 1.584,1.152 2.376,1.224 0.504,0 4.752,-0.432 8.136,-0.432 3.45599,0 8.208,0.432 8.712,0.432 0.792,-0.072 2.304,-0.504 2.304,-1.224 0,-1.08 -2.376,-1.44 -3.96,-2.16 -2.448,-1.08 -3.384,-2.52 -3.384,-5.184 l 0,-26.28 c 0,-4.104 1.872,-4.176 5.976,-5.328 0.648,-0.216 1.08,-0.576 1.08,-1.224 0,-0.864 -1.44,-1.296 -2.52,-1.296"
         style="fill:none;stroke:#808080;stroke-width:0.625;stroke-miterlimit:4;stroke-dasharray:none"
         id="path3826"
         inkscape:connector-curvature="0" />
      <path
         d="m 168.31289,169.65343 c -7.056,0 -12.816,5.32801 -12.816,12.096 0,3.528 1.656,6.12 4.248,8.28 l 9.72,8.208 c 1.79999,1.512 2.88,3.312 2.88,5.76 0,3.6 -2.66401,6.912 -6.264,6.912 -4.176,0 -6.984,-2.088 -7.776,-4.68 -0.648,-2.16 -1.296,-3.384 -2.448,-3.384 -0.72,0 -1.224,0.864 -1.368,1.728 -0.216,0.936 -0.504,3.96 -0.504,4.968 0,1.008 0.648,1.368 3.312,2.592 1.72799,0.792 5.04,1.584 7.56,1.584 7.19999,0 14.472,-5.25601 14.472,-12.312 0,-3.024 -1.22401,-5.472 -3.456,-7.344 l -10.152,-8.568 c -2.16,-1.8 -3.672,-3.672 -3.672,-6.048 0,-3.168 2.808,-5.688 5.904,-5.688 2.08799,0 4.968,0.864 5.688,2.592 1.08,2.592 2.016,3.312 2.88,3.312 1.08,0 1.44,-1.008 1.44,-1.944 0,-1.368 -0.072,-2.952 -0.288,-4.104 -0.144,-0.792 -0.792,-1.368 -2.16,-2.088 -1.584,-0.792 -4.89601,-1.872 -7.2,-1.872"
         style="fill:none;stroke:#808080;stroke-width:0.625;stroke-miterlimit:4;stroke-dasharray:none"
         id="path3828"
         inkscape:connector-curvature="0" />
      <path
         d="m 197.70351,169.65343 c -7.05599,0 -12.816,5.32801 -12.816,12.096 0,3.528 1.656,6.12 4.248,8.28 l 9.72,8.208 c 1.8,1.512 2.88,3.312 2.88,5.76 0,3.6 -2.664,6.912 -6.264,6.912 -4.17599,0 -6.984,-2.088 -7.776,-4.68 -0.648,-2.16 -1.296,-3.384 -2.448,-3.384 -0.72,0 -1.224,0.864 -1.368,1.728 -0.216,0.936 -0.504,3.96 -0.504,4.968 0,1.008 0.648,1.368 3.312,2.592 1.728,0.792 5.04,1.584 7.56,1.584 7.19999,0 14.472,-5.25601 14.472,-12.312 0,-3.024 -1.224,-5.472 -3.456,-7.344 l -10.152,-8.568 c -2.16,-1.8 -3.672,-3.672 -3.672,-6.048 0,-3.168 2.808,-5.688 5.904,-5.688 2.088,0 4.968,0.864 5.688,2.592 1.08,2.592 2.016,3.312 2.88,3.312 1.08,0 1.44,-1.008 1.44,-1.944 0,-1.368 -0.072,-2.952 -0.288,-4.104 -0.144,-0.792 -0.792,-1.368 -2.16,-2.088 -1.584,-0.792 -4.896,-1.872 -7.2,-1.872"
         style="fill:none;stroke:#808080;stroke-width:0.625;stroke-miterlimit:4;stroke-dasharray:none"
         id="path3830"
         inkscape:connector-curvature="0" />
      <path
         d="m 227.52614,193.34143 5.04,-14.328 c 0.288,-0.72 0.576,-0.936 0.792,-0.216 l 4.392,13.464 c 0.72,2.304 0.648,2.592 -0.792,2.592 l -8.784,0 c -1.296,0 -1.08,-0.36 -0.648,-1.512 m 20.52,19.296 c 2.37599,0 4.968,0.432 6.624,0.432 1.368,0 2.088,-0.36 2.088,-1.152 0,-0.72 -0.64801,-1.44 -2.88,-2.232 -3.528,-1.296 -4.32001,-3.24001 -6.408,-9.072 l -9.504,-26.856 c -1.008,-2.808 -1.44,-5.184 -2.664,-5.184 -0.432,0 -1.728,2.016 -3.096,2.16 -0.792,0.072 -0.792,1.008 -2.016,4.104 l -11.016,30.456 c -1.08,2.952 -1.00801,3.312 -3.384,4.392 -1.584,0.72 -3.96,1.08 -3.96,2.16 0,0.792 1.008,1.224 2.376,1.224 1.08,0 2.736,-0.432 4.536,-0.432 1.368,0 4.536,0.432 5.904,0.432 1.79999,0 2.52,-0.432 2.52,-1.224 0,-0.72 -0.79201,-1.512 -2.664,-2.016 -2.088,-0.576 -2.016,-1.728 -1.584,-3.024 l 2.736,-7.848 c 0.288,-0.72 0.792,-0.792 1.152,-0.792 l 12.024,0 c 0.576,0 0.936,0.216 1.152,0.864 l 2.088,6.84 c 0.36,1.224 0.50399,2.592 -2.088,3.816 -1.584,0.72 -3.888,1.08 -3.888,2.16 0,0.792 1.368,1.224 2.304,1.224 2.15999,0 4.896,-0.432 9.648,-0.432"
         style="fill:none;stroke:#808080;stroke-width:0.625;stroke-miterlimit:4;stroke-dasharray:none"
         id="path3832"
         inkscape:connector-curvature="0" />
      <path
         d="m 287.60789,175.41343 c 0,-1.584 3.168,-2.304 6.264,-2.304 10.22399,0 18.36,7.77601 18.36,18.288 0,9.14399 -4.53601,18.792 -13.104,18.792 -9.64799,0 -11.52,-1.296 -11.52,-6.12 l 0,-28.656 m 8.64,-5.544 c -4.464,0 -9.79201,0.576 -14.256,0.576 -2.16,0 -3.52801,-0.072 -5.76,-0.072 -1.512,0 -2.52,0.432 -2.52,1.296 0,0.648 0.504,1.008 1.152,1.224 4.10399,1.224 5.904,1.224 5.904,5.328 l 0,26.28 c 0,2.664 -1.00801,4.104 -3.384,5.184 -1.584,0.72 -3.96,1.08 -3.96,2.16 0,0.792 1.584,1.152 2.376,1.224 0.504,0 4.752,-0.432 8.064,-0.432 3.31199,0 7.128,0.792 13.968,0.792 15.47998,0 22.464,-11.01601 22.464,-23.472 0,-12.23999 -11.95202,-20.088 -24.048,-20.088"
         style="fill:none;stroke:#808080;stroke-width:0.625;stroke-miterlimit:4;stroke-dasharray:none"
         id="path3834"
         inkscape:connector-curvature="0" />
      <path
         d="m 339.21726,187.29343 0,-12.096 c 0,-0.936 0.288,-1.512 2.232,-1.512 l 8.568,0 c 3.456,0 5.256,1.152 5.832,2.376 0.648,1.44 1.728,2.736 2.592,2.736 0.864,0 1.152,-1.008 1.152,-1.872 0,-0.792 -0.36,-4.752 -0.648,-5.904 -0.144,-0.648 -0.72,-1.008 -1.872,-1.008 -1.296,0 -5.544,0.36 -8.568,0.36 l -20.664,0 c -1.512,0 -2.52,0.432 -2.52,1.296 0,0.648 0.504,1.008 1.152,1.224 4.104,1.152 5.904,1.224 5.904,5.328 l 0,26.28 c 0,2.664 -0.936,4.104 -3.384,5.184 -1.584,0.72 -3.96,1.08 -3.96,2.16 0,0.72 1.584,1.152 2.376,1.224 0.504,0 4.75201,-0.36 8.136,-0.36 7.63199,0 20.664,0.36 23.328,0.36 1.224,0 1.368,-0.288 1.944,-1.368 0.576,-0.936 2.736,-6.264 2.736,-8.28 0,-1.08 -0.288,-1.8 -1.008,-1.8 -0.648,0 -1.584,0.576 -1.944,1.368 -2.088,4.392 -3.024,6.696 -8.568,6.696 l -10.08,0 c -2.088,0 -2.736,-0.936 -2.736,-2.808 l 0,-12.096 c 0,-1.368 0.36,-1.728 1.728,-1.728 l 7.56,0 c 1.512,0 2.016,0.72 2.52,1.512 0.432,0.72 1.368,2.736 2.304,2.736 0.72,0 0.936,-1.152 0.936,-1.872 0,-0.792 -0.072,-3.024 -0.072,-4.104 0,-1.08 0.288,-3.6 0.288,-4.176 0,-0.864 -0.144,-1.44 -0.792,-1.44 -0.792,0 -1.44,1.08 -2.232,1.8 -1.296,1.224 -2.088,2.016 -4.392,2.016 l -6.192,0 c -1.008,0 -1.656,-0.504 -1.656,-2.232"
         style="fill:none;stroke:#808080;stroke-width:0.625;stroke-miterlimit:4;stroke-dasharray:none"
         id="path3836"
         inkscape:connector-curvature="0" />
      <path
         d="m 384.67514,170.37343 c -2.448,0 -5.40001,0.36 -7.92,0.36 -2.592,0 -5.18401,-0.36 -7.992,-0.36 -1.08,0 -2.52,0.432 -2.52,1.296 0,0.648 0.504,1.008 1.152,1.224 4.10399,1.152 5.904,1.224 5.904,5.328 l 0,26.28 c 0,2.664 -0.93601,4.104 -3.384,5.184 -1.584,0.72 -3.96,1.08 -3.96,2.16 0,0.72 1.584,1.152 2.376,1.224 0.504,0 4.752,-0.432 8.136,-0.432 3.45599,0 8.208,0.432 8.712,0.432 0.792,-0.072 2.304,-0.504 2.304,-1.224 0,-1.08 -2.376,-1.44 -3.96,-2.16 -2.448,-1.08 -3.384,-2.52 -3.384,-5.184 l 0,-26.28 c 0,-4.104 1.872,-4.176 5.976,-5.328 0.648,-0.216 1.08,-0.576 1.08,-1.224 0,-0.864 -1.44,-1.296 -2.52,-1.296"
         style="fill:none;stroke:#808080;stroke-width:0.625;stroke-miterlimit:4;stroke-dasharray:none"
         id="path3838"
         inkscape:connector-curvature="0" />
      <path
         d="m 419.29814,174.47743 c 0,-1.08 1.008,-1.656 3.6,-1.656 4.82399,0 9.072,3.52801 9.072,8.352 0,3.744 -1.58401,6.336 -4.392,8.712 -2.016,1.728 -3.096,1.872 -3.096,2.592 0,0.864 0.504,1.224 1.296,1.224 0.792,0 1.944,0 4.608,-1.44 5.03999,-2.736 8.784,-6.26401 8.784,-12.168 0,-7.27199 -8.06401,-10.44 -15.336,-10.44 -6.408,0 -9.36001,0.216 -15.696,0.72 -1.512,0.072 -2.52,0.432 -2.52,1.296 0,0.648 0.504,1.008 1.152,1.224 4.10399,1.152 5.904,1.224 5.904,5.328 l 0,26.28 c 0,2.664 -0.93601,4.104 -3.384,5.184 -1.584,0.72 -3.96,1.08 -3.96,2.16 0,0.72 1.584,1.152 2.376,1.224 0.504,0 4.824,-0.432 7.92,-0.432 3.45599,0 8.208,0.432 8.712,0.432 0.792,-0.072 2.304,-0.504 2.304,-1.224 0,-1.08 -2.376,-1.44 -3.96,-2.16 -2.448,-1.08 -3.384,-2.52 -3.384,-5.184 l 0,-30.024"
         style="fill:none;stroke:#808080;stroke-width:0.625;stroke-miterlimit:4;stroke-dasharray:none"
         id="path3840"
         inkscape:connector-curvature="0" />
      <path
         d="m 459.55739,193.34143 5.04,-14.328 c 0.288,-0.72 0.576,-0.936 0.792,-0.216 l 4.392,13.464 c 0.72,2.304 0.648,2.592 -0.792,2.592 l -8.784,0 c -1.296,0 -1.08,-0.36 -0.648,-1.512 m 20.52,19.296 c 2.37599,0 4.968,0.432 6.624,0.432 1.368,0 2.088,-0.36 2.088,-1.152 0,-0.72 -0.64801,-1.44 -2.88,-2.232 -3.528,-1.296 -4.32001,-3.24001 -6.408,-9.072 l -9.504,-26.856 c -1.008,-2.808 -1.44,-5.184 -2.664,-5.184 -0.432,0 -1.728,2.016 -3.096,2.16 -0.792,0.072 -0.792,1.008 -2.016,4.104 l -11.016,30.456 c -1.08,2.952 -1.00801,3.312 -3.384,4.392 -1.584,0.72 -3.96,1.08 -3.96,2.16 0,0.792 1.008,1.224 2.376,1.224 1.08,0 2.736,-0.432 4.536,-0.432 1.368,0 4.536,0.432 5.904,0.432 1.79999,0 2.52,-0.432 2.52,-1.224 0,-0.72 -0.79201,-1.512 -2.664,-2.016 -2.088,-0.576 -2.016,-1.728 -1.584,-3.024 l 2.736,-7.848 c 0.288,-0.72 0.792,-0.792 1.152,-0.792 l 12.024,0 c 0.576,0 0.936,0.216 1.152,0.864 l 2.088,6.84 c 0.36,1.224 0.50399,2.592 -2.088,3.816 -1.584,0.72 -3.888,1.08 -3.888,2.16 0,0.792 1.368,1.224 2.304,1.224 2.15999,0 4.896,-0.432 9.648,-0.432"
         style="fill:none;stroke:#808080;stroke-width:0.625;stroke-miterlimit:4;stroke-dasharray:none"
         id="path3842"
         inkscape:connector-curvature="0" />
      <path
         d="m 508.26089,176.56543 0,27.936 c 0,2.664 -0.93601,4.104 -3.384,5.184 -1.584,0.72 -3.96,1.08 -3.96,2.16 0,0.72 1.584,1.152 2.376,1.224 0.504,0 4.752,-0.432 8.136,-0.432 3.45599,0 8.208,0.432 8.712,0.432 0.792,-0.072 2.304,-0.504 2.304,-1.224 0,-1.08 -2.376,-1.44 -3.96,-2.16 -2.448,-1.08 -3.384,-2.52 -3.384,-5.184 l 0,-27.936 c 0,-0.72 0.144,-2.232 0.864,-2.232 l 11.16,0 c 1.008,0 1.944,0.936 2.592,2.016 0.792,1.368 1.872,3.24 2.592,3.24 0.864,0 1.008,-0.576 1.008,-1.656 0,-0.792 -0.144,-3.24 -0.144,-4.968 0,-1.584 0.288,-2.448 0.288,-3.096 0,-0.576 -0.432,-1.296 -1.296,-1.296 -0.864,0 -1.224,0.576 -2.088,1.08 -1.296,0.72 -2.44801,1.224 -5.04,1.224 l -25.128,0 c -3.96,0 -5.76,-2.16 -6.84,-2.16 -0.72,0 -1.224,0.864 -1.224,1.8 0,0.72 0.144,2.088 0.144,3.24 0,2.304 -0.36,2.88 -0.36,4.536 0,0.648 0.36,1.656 1.296,1.656 1.008,0 1.512,-2.016 2.304,-3.456 0.72,-1.296 1.224,-2.16 3.096,-2.16 l 8.784,0 c 0.72,0 1.152,0.792 1.152,2.232"
         style="fill:none;stroke:#808080;stroke-width:0.625;stroke-miterlimit:4;stroke-dasharray:none"
         id="path3844"
         inkscape:connector-curvature="0" />
      <path
         d="m 561.88626,195.21343 c -0.936,-1.368 -1.8,-2.952 -1.8,-3.6 0,-0.648 0.288,-0.576 1.224,-1.296 3.384,-2.448 5.688,-5.472 5.688,-10.08 0,-7.27199 -8.06401,-10.296 -15.336,-10.296 -6.40799,0 -9.36,0.216 -15.696,0.72 -1.512,0.072 -2.52,0.432 -2.52,1.296 0,0.648 0.504,1.008 1.152,1.224 4.104,1.152 5.904,1.224 5.904,5.328 l 0,25.992 c 0,2.664 -0.936,4.104 -3.384,5.184 -1.584,0.72 -3.96,1.08 -3.96,2.16 0,0.72 1.584,1.152 2.376,1.224 0.504,0 4.824,-0.432 7.92,-0.432 3.456,0 8.208,0.432 8.712,0.432 0.792,-0.072 2.304,-0.504 2.304,-1.224 0,-1.08 -2.376,-1.44 -3.96,-2.16 -2.448,-1.08 -3.384,-2.52 -3.384,-5.184 l 0,-8.64 c 0,-1.44 0.504,-1.944 2.016,-1.944 3.024,0 5.112,0.936 5.976,2.376 3.744,6.26399 7.12801,10.512 11.376,14.976 2.016,2.16 5.61601,3.384 9.144,3.384 2.52,0 5.04,-0.864 5.04,-2.16 0,-0.576 -0.432,-1.152 -1.224,-1.224 -1.584,-0.144 -3.24,-0.504 -4.104,-1.152 -5.39999,-3.888 -9.936,-9.648 -13.464,-14.904 m -11.808,-3.888 c -2.088,0 -2.952,-0.576 -2.952,-1.872 l 0,-13.896 c 0,-1.368 1.584,-2.448 3.6,-2.448 4.824,0 9.072,3.38401 9.072,8.208 0,3.744 -1.584,6.192 -4.392,8.568 -0.648,0.72 -3.168,1.44 -5.328,1.44"
         style="fill:none;stroke:#808080;stroke-width:0.625;stroke-miterlimit:4;stroke-dasharray:none"
         id="path3846"
         inkscape:connector-curvature="0" />
      <path
         d="m 598.70639,170.37343 c -2.448,0 -5.40001,0.36 -7.92,0.36 -2.592,0 -5.18401,-0.36 -7.992,-0.36 -1.08,0 -2.52,0.432 -2.52,1.296 0,0.648 0.504,1.008 1.152,1.224 4.10399,1.152 5.904,1.224 5.904,5.328 l 0,26.28 c 0,2.664 -0.93601,4.104 -3.384,5.184 -1.584,0.72 -3.96,1.08 -3.96,2.16 0,0.72 1.584,1.152 2.376,1.224 0.504,0 4.752,-0.432 8.136,-0.432 3.45599,0 8.208,0.432 8.712,0.432 0.792,-0.072 2.304,-0.504 2.304,-1.224 0,-1.08 -2.376,-1.44 -3.96,-2.16 -2.448,-1.08 -3.384,-2.52 -3.384,-5.184 l 0,-26.28 c 0,-4.104 1.872,-4.176 5.976,-5.328 0.648,-0.216 1.08,-0.576 1.08,-1.224 0,-0.864 -1.44,-1.296 -2.52,-1.296"
         style="fill:none;stroke:#808080;stroke-width:0.625;stroke-miterlimit:4;stroke-dasharray:none"
         id="path3848"
         inkscape:connector-curvature="0" />
      <path
         d="m 619.71914,169.65343 c -7.056,0 -12.816,5.32801 -12.816,12.096 0,3.528 1.656,6.12 4.248,8.28 l 9.72,8.208 c 1.79999,1.512 2.88,3.312 2.88,5.76 0,3.6 -2.66401,6.912 -6.264,6.912 -4.176,0 -6.984,-2.088 -7.776,-4.68 -0.648,-2.16 -1.296,-3.384 -2.448,-3.384 -0.72,0 -1.224,0.864 -1.368,1.728 -0.216,0.936 -0.504,3.96 -0.504,4.968 0,1.008 0.648,1.368 3.312,2.592 1.72799,0.792 5.04,1.584 7.56,1.584 7.19999,0 14.472,-5.25601 14.472,-12.312 0,-3.024 -1.22401,-5.472 -3.456,-7.344 l -10.152,-8.568 c -2.16,-1.8 -3.672,-3.672 -3.672,-6.048 0,-3.168 2.808,-5.688 5.904,-5.688 2.08799,0 4.968,0.864 5.688,2.592 1.08,2.592 2.016,3.312 2.88,3.312 1.08,0 1.44,-1.008 1.44,-1.944 0,-1.368 -0.072,-2.952 -0.288,-4.104 -0.144,-0.792 -0.792,-1.368 -2.16,-2.088 -1.584,-0.792 -4.89601,-1.872 -7.2,-1.872"
         style="fill:none;stroke:#808080;stroke-width:0.625;stroke-miterlimit:4;stroke-dasharray:none"
         id="path3850"
         inkscape:connector-curvature="0" />
    </g>
  </g>
</svg>
